<mxfile host="app.diagrams.net" agent="Mozilla/5.0 (Windows NT 10.0; Win64; x64) AppleWebKit/537.36 (KHTML, like Gecko) Chrome/122.0.0.0 Safari/537.36" version="24.8.1">
  <diagram name="Page-1" id="YgdbFq6y4hTvsVNCq2CM">
    <mxGraphModel dx="3384" dy="1186" grid="1" gridSize="10" guides="1" tooltips="1" connect="1" arrows="1" fold="1" page="1" pageScale="1" pageWidth="850" pageHeight="1100" math="0" shadow="0">
      <root>
        <mxCell id="0" />
        <mxCell id="1" parent="0" />
        <mxCell id="x0AtSMN2B3MsgTTcqNLT-1" value="&lt;font style=&quot;font-size: 24px;&quot;&gt;Hotel Chain&lt;/font&gt;" style="rounded=0;whiteSpace=wrap;html=1;" vertex="1" parent="1">
          <mxGeometry x="340" y="330" width="120" height="60" as="geometry" />
        </mxCell>
        <mxCell id="x0AtSMN2B3MsgTTcqNLT-2" value="&lt;span id=&quot;docs-internal-guid-1732860f-7fff-1e20-06ae-a68eb9c9d7e9&quot;&gt;&lt;span style=&quot;font-size: 11pt; font-family: Arial, sans-serif; background-color: transparent; font-variant-numeric: normal; font-variant-east-asian: normal; font-variant-alternates: normal; font-variant-position: normal; vertical-align: baseline; white-space-collapse: preserve;&quot;&gt;Address of its central offices&lt;/span&gt;&lt;/span&gt;" style="ellipse;whiteSpace=wrap;html=1;" vertex="1" parent="1">
          <mxGeometry x="260" y="120" width="120" height="60" as="geometry" />
        </mxCell>
        <mxCell id="x0AtSMN2B3MsgTTcqNLT-3" value="&lt;span id=&quot;docs-internal-guid-682e48af-7fff-8a9f-41f8-385f8e114bf9&quot;&gt;&lt;span style=&quot;font-size: 11pt; font-family: Arial, sans-serif; background-color: transparent; font-variant-numeric: normal; font-variant-east-asian: normal; font-variant-alternates: normal; font-variant-position: normal; vertical-align: baseline; white-space-collapse: preserve;&quot;&gt;Number of Hotels&lt;/span&gt;&lt;/span&gt;" style="ellipse;whiteSpace=wrap;html=1;" vertex="1" parent="1">
          <mxGeometry x="260" y="190" width="120" height="60" as="geometry" />
        </mxCell>
        <mxCell id="x0AtSMN2B3MsgTTcqNLT-5" value="&lt;font style=&quot;font-size: 14px;&quot;&gt;Name&lt;/font&gt;" style="ellipse;whiteSpace=wrap;html=1;" vertex="1" parent="1">
          <mxGeometry x="260" y="260" width="120" height="60" as="geometry" />
        </mxCell>
        <mxCell id="x0AtSMN2B3MsgTTcqNLT-6" value="&lt;font style=&quot;font-size: 14px;&quot;&gt;Chain ID&lt;/font&gt;" style="ellipse;whiteSpace=wrap;html=1;" vertex="1" parent="1">
          <mxGeometry x="420" y="120" width="120" height="60" as="geometry" />
        </mxCell>
        <mxCell id="x0AtSMN2B3MsgTTcqNLT-8" value="&lt;font style=&quot;font-size: 14px;&quot;&gt;Contact Email&lt;/font&gt;" style="ellipse;whiteSpace=wrap;html=1;" vertex="1" parent="1">
          <mxGeometry x="420" y="190" width="120" height="60" as="geometry" />
        </mxCell>
        <mxCell id="x0AtSMN2B3MsgTTcqNLT-9" value="&lt;span style=&quot;font-size: 14px;&quot;&gt;Contact Phone Number&lt;/span&gt;" style="ellipse;whiteSpace=wrap;html=1;" vertex="1" parent="1">
          <mxGeometry x="420" y="260" width="120" height="60" as="geometry" />
        </mxCell>
        <mxCell id="x0AtSMN2B3MsgTTcqNLT-10" value="" style="endArrow=none;html=1;rounded=0;exitX=1;exitY=0.5;exitDx=0;exitDy=0;entryX=0.5;entryY=0;entryDx=0;entryDy=0;" edge="1" parent="1" source="x0AtSMN2B3MsgTTcqNLT-2" target="x0AtSMN2B3MsgTTcqNLT-1">
          <mxGeometry width="50" height="50" relative="1" as="geometry">
            <mxPoint x="480" y="300" as="sourcePoint" />
            <mxPoint x="530" y="250" as="targetPoint" />
            <Array as="points">
              <mxPoint x="400" y="150" />
            </Array>
          </mxGeometry>
        </mxCell>
        <mxCell id="x0AtSMN2B3MsgTTcqNLT-11" value="" style="endArrow=none;html=1;rounded=0;entryX=0;entryY=0.5;entryDx=0;entryDy=0;" edge="1" parent="1" target="x0AtSMN2B3MsgTTcqNLT-6">
          <mxGeometry width="50" height="50" relative="1" as="geometry">
            <mxPoint x="400" y="150" as="sourcePoint" />
            <mxPoint x="530" y="250" as="targetPoint" />
          </mxGeometry>
        </mxCell>
        <mxCell id="x0AtSMN2B3MsgTTcqNLT-12" value="" style="endArrow=none;html=1;rounded=0;entryX=0;entryY=0.5;entryDx=0;entryDy=0;" edge="1" parent="1">
          <mxGeometry width="50" height="50" relative="1" as="geometry">
            <mxPoint x="400" y="219.76" as="sourcePoint" />
            <mxPoint x="420" y="219.76" as="targetPoint" />
          </mxGeometry>
        </mxCell>
        <mxCell id="x0AtSMN2B3MsgTTcqNLT-13" value="" style="endArrow=none;html=1;rounded=0;entryX=0;entryY=0.5;entryDx=0;entryDy=0;" edge="1" parent="1">
          <mxGeometry width="50" height="50" relative="1" as="geometry">
            <mxPoint x="400" y="289.76" as="sourcePoint" />
            <mxPoint x="420" y="289.76" as="targetPoint" />
          </mxGeometry>
        </mxCell>
        <mxCell id="x0AtSMN2B3MsgTTcqNLT-14" value="" style="endArrow=none;html=1;rounded=0;entryX=0;entryY=0.5;entryDx=0;entryDy=0;" edge="1" parent="1">
          <mxGeometry width="50" height="50" relative="1" as="geometry">
            <mxPoint x="380" y="289.76" as="sourcePoint" />
            <mxPoint x="400" y="289.76" as="targetPoint" />
          </mxGeometry>
        </mxCell>
        <mxCell id="x0AtSMN2B3MsgTTcqNLT-15" value="" style="endArrow=none;html=1;rounded=0;entryX=0;entryY=0.5;entryDx=0;entryDy=0;" edge="1" parent="1">
          <mxGeometry width="50" height="50" relative="1" as="geometry">
            <mxPoint x="380" y="219.76" as="sourcePoint" />
            <mxPoint x="400" y="219.76" as="targetPoint" />
          </mxGeometry>
        </mxCell>
        <mxCell id="x0AtSMN2B3MsgTTcqNLT-16" value="&lt;font style=&quot;font-size: 18px;&quot;&gt;Owns&lt;/font&gt;" style="rhombus;whiteSpace=wrap;html=1;" vertex="1" parent="1">
          <mxGeometry x="360" y="460" width="80" height="50" as="geometry" />
        </mxCell>
        <mxCell id="x0AtSMN2B3MsgTTcqNLT-17" value="&lt;font style=&quot;font-size: 24px;&quot;&gt;Hotel&lt;/font&gt;" style="whiteSpace=wrap;html=1;" vertex="1" parent="1">
          <mxGeometry x="340" y="580" width="120" height="60" as="geometry" />
        </mxCell>
        <mxCell id="x0AtSMN2B3MsgTTcqNLT-21" value="&lt;span style=&quot;font-size: 14px;&quot;&gt;Hotel ID&lt;/span&gt;" style="ellipse;whiteSpace=wrap;html=1;" vertex="1" parent="1">
          <mxGeometry x="420" y="650" width="120" height="60" as="geometry" />
        </mxCell>
        <mxCell id="x0AtSMN2B3MsgTTcqNLT-22" value="&lt;span style=&quot;font-size: 14px;&quot;&gt;Number of Stars&lt;/span&gt;" style="ellipse;whiteSpace=wrap;html=1;" vertex="1" parent="1">
          <mxGeometry x="260" y="720" width="120" height="60" as="geometry" />
        </mxCell>
        <mxCell id="x0AtSMN2B3MsgTTcqNLT-23" value="&lt;span style=&quot;font-size: 14px;&quot;&gt;Number of Rooms&lt;/span&gt;" style="ellipse;whiteSpace=wrap;html=1;" vertex="1" parent="1">
          <mxGeometry x="260" y="790" width="120" height="60" as="geometry" />
        </mxCell>
        <mxCell id="x0AtSMN2B3MsgTTcqNLT-24" value="&lt;span style=&quot;font-size: 14px;&quot;&gt;Address&lt;/span&gt;" style="ellipse;whiteSpace=wrap;html=1;" vertex="1" parent="1">
          <mxGeometry x="420" y="720" width="120" height="60" as="geometry" />
        </mxCell>
        <mxCell id="x0AtSMN2B3MsgTTcqNLT-26" value="&lt;font style=&quot;font-size: 14px;&quot;&gt;Contact Email&lt;/font&gt;" style="ellipse;whiteSpace=wrap;html=1;" vertex="1" parent="1">
          <mxGeometry x="420" y="790" width="120" height="60" as="geometry" />
        </mxCell>
        <mxCell id="x0AtSMN2B3MsgTTcqNLT-27" value="&lt;span style=&quot;font-size: 14px;&quot;&gt;Contact Phone Number&lt;/span&gt;" style="ellipse;whiteSpace=wrap;html=1;" vertex="1" parent="1">
          <mxGeometry x="420" y="860" width="120" height="60" as="geometry" />
        </mxCell>
        <mxCell id="x0AtSMN2B3MsgTTcqNLT-28" value="&lt;span style=&quot;font-size: 14px;&quot;&gt;Manager&lt;/span&gt;" style="ellipse;whiteSpace=wrap;html=1;" vertex="1" parent="1">
          <mxGeometry x="260" y="860" width="120" height="60" as="geometry" />
        </mxCell>
        <mxCell id="x0AtSMN2B3MsgTTcqNLT-29" value="&lt;span style=&quot;font-size: 14px;&quot;&gt;Name&lt;/span&gt;" style="ellipse;whiteSpace=wrap;html=1;" vertex="1" parent="1">
          <mxGeometry x="260" y="650" width="120" height="60" as="geometry" />
        </mxCell>
        <mxCell id="x0AtSMN2B3MsgTTcqNLT-30" value="" style="endArrow=none;html=1;rounded=0;exitX=1;exitY=0.5;exitDx=0;exitDy=0;entryX=0.5;entryY=0;entryDx=0;entryDy=0;" edge="1" parent="1">
          <mxGeometry width="50" height="50" relative="1" as="geometry">
            <mxPoint x="380" y="680" as="sourcePoint" />
            <mxPoint x="400" y="860" as="targetPoint" />
            <Array as="points">
              <mxPoint x="400" y="680" />
            </Array>
          </mxGeometry>
        </mxCell>
        <mxCell id="x0AtSMN2B3MsgTTcqNLT-31" value="" style="endArrow=none;html=1;rounded=0;entryX=0;entryY=0.5;entryDx=0;entryDy=0;" edge="1" parent="1">
          <mxGeometry width="50" height="50" relative="1" as="geometry">
            <mxPoint x="400" y="680" as="sourcePoint" />
            <mxPoint x="420" y="680" as="targetPoint" />
          </mxGeometry>
        </mxCell>
        <mxCell id="x0AtSMN2B3MsgTTcqNLT-32" value="" style="endArrow=none;html=1;rounded=0;entryX=0;entryY=0.5;entryDx=0;entryDy=0;" edge="1" parent="1">
          <mxGeometry width="50" height="50" relative="1" as="geometry">
            <mxPoint x="400" y="749.76" as="sourcePoint" />
            <mxPoint x="420" y="749.76" as="targetPoint" />
          </mxGeometry>
        </mxCell>
        <mxCell id="x0AtSMN2B3MsgTTcqNLT-33" value="" style="endArrow=none;html=1;rounded=0;entryX=0;entryY=0.5;entryDx=0;entryDy=0;" edge="1" parent="1">
          <mxGeometry width="50" height="50" relative="1" as="geometry">
            <mxPoint x="400" y="819.76" as="sourcePoint" />
            <mxPoint x="420" y="819.76" as="targetPoint" />
          </mxGeometry>
        </mxCell>
        <mxCell id="x0AtSMN2B3MsgTTcqNLT-34" value="" style="endArrow=none;html=1;rounded=0;entryX=0;entryY=0.5;entryDx=0;entryDy=0;" edge="1" parent="1">
          <mxGeometry width="50" height="50" relative="1" as="geometry">
            <mxPoint x="380" y="819.76" as="sourcePoint" />
            <mxPoint x="400" y="819.76" as="targetPoint" />
          </mxGeometry>
        </mxCell>
        <mxCell id="x0AtSMN2B3MsgTTcqNLT-35" value="" style="endArrow=none;html=1;rounded=0;entryX=0;entryY=0.5;entryDx=0;entryDy=0;" edge="1" parent="1">
          <mxGeometry width="50" height="50" relative="1" as="geometry">
            <mxPoint x="380" y="749.76" as="sourcePoint" />
            <mxPoint x="400" y="749.76" as="targetPoint" />
          </mxGeometry>
        </mxCell>
        <mxCell id="x0AtSMN2B3MsgTTcqNLT-36" value="" style="endArrow=none;html=1;rounded=0;exitX=1;exitY=0.5;exitDx=0;exitDy=0;entryX=0;entryY=0.5;entryDx=0;entryDy=0;" edge="1" parent="1" source="x0AtSMN2B3MsgTTcqNLT-28" target="x0AtSMN2B3MsgTTcqNLT-27">
          <mxGeometry width="50" height="50" relative="1" as="geometry">
            <mxPoint x="400" y="740" as="sourcePoint" />
            <mxPoint x="450" y="690" as="targetPoint" />
          </mxGeometry>
        </mxCell>
        <mxCell id="x0AtSMN2B3MsgTTcqNLT-37" value="" style="endArrow=none;html=1;rounded=0;entryX=0.5;entryY=1;entryDx=0;entryDy=0;" edge="1" parent="1" target="x0AtSMN2B3MsgTTcqNLT-17">
          <mxGeometry width="50" height="50" relative="1" as="geometry">
            <mxPoint x="400" y="890" as="sourcePoint" />
            <mxPoint x="450" y="690" as="targetPoint" />
          </mxGeometry>
        </mxCell>
        <mxCell id="x0AtSMN2B3MsgTTcqNLT-38" value="&lt;font style=&quot;font-size: 24px;&quot;&gt;Employee&lt;/font&gt;" style="whiteSpace=wrap;html=1;" vertex="1" parent="1">
          <mxGeometry x="-40" y="580" width="120" height="60" as="geometry" />
        </mxCell>
        <mxCell id="x0AtSMN2B3MsgTTcqNLT-39" value="&lt;font style=&quot;font-size: 18px;&quot;&gt;Employs&lt;/font&gt;" style="rhombus;whiteSpace=wrap;html=1;" vertex="1" parent="1">
          <mxGeometry x="150" y="585" width="120" height="50" as="geometry" />
        </mxCell>
        <mxCell id="x0AtSMN2B3MsgTTcqNLT-43" value="&lt;font style=&quot;font-size: 24px;&quot;&gt;Room&lt;/font&gt;" style="whiteSpace=wrap;html=1;" vertex="1" parent="1">
          <mxGeometry x="720" y="580" width="120" height="60" as="geometry" />
        </mxCell>
        <mxCell id="x0AtSMN2B3MsgTTcqNLT-45" value="&lt;font style=&quot;font-size: 18px;&quot;&gt;Has&lt;/font&gt;" style="rhombus;whiteSpace=wrap;html=1;" vertex="1" parent="1">
          <mxGeometry x="530" y="585" width="120" height="50" as="geometry" />
        </mxCell>
        <mxCell id="x0AtSMN2B3MsgTTcqNLT-50" value="&lt;font style=&quot;font-size: 24px;&quot;&gt;Booking&lt;/font&gt;" style="whiteSpace=wrap;html=1;" vertex="1" parent="1">
          <mxGeometry x="720" y="330" width="120" height="60" as="geometry" />
        </mxCell>
        <mxCell id="x0AtSMN2B3MsgTTcqNLT-51" value="&lt;font style=&quot;font-size: 24px;&quot;&gt;Renting&lt;/font&gt;" style="whiteSpace=wrap;html=1;" vertex="1" parent="1">
          <mxGeometry x="720" y="820" width="120" height="60" as="geometry" />
        </mxCell>
        <mxCell id="x0AtSMN2B3MsgTTcqNLT-52" value="&lt;font style=&quot;font-size: 24px;&quot;&gt;Customer&lt;/font&gt;" style="whiteSpace=wrap;html=1;" vertex="1" parent="1">
          <mxGeometry x="1140" y="580" width="120" height="60" as="geometry" />
        </mxCell>
        <mxCell id="x0AtSMN2B3MsgTTcqNLT-55" value="&lt;font style=&quot;font-size: 18px;&quot;&gt;Rents&lt;/font&gt;" style="rhombus;whiteSpace=wrap;html=1;" vertex="1" parent="1">
          <mxGeometry x="740" y="705" width="80" height="50" as="geometry" />
        </mxCell>
        <mxCell id="x0AtSMN2B3MsgTTcqNLT-58" value="&lt;font style=&quot;font-size: 18px;&quot;&gt;Books&lt;/font&gt;" style="rhombus;whiteSpace=wrap;html=1;" vertex="1" parent="1">
          <mxGeometry x="740" y="460" width="80" height="50" as="geometry" />
        </mxCell>
        <mxCell id="x0AtSMN2B3MsgTTcqNLT-64" value="&lt;font style=&quot;font-size: 18px;&quot;&gt;Has&lt;/font&gt;" style="rhombus;whiteSpace=wrap;html=1;" vertex="1" parent="1">
          <mxGeometry x="1160" y="335" width="80" height="50" as="geometry" />
        </mxCell>
        <mxCell id="x0AtSMN2B3MsgTTcqNLT-68" value="&lt;font style=&quot;font-size: 18px;&quot;&gt;Is&lt;/font&gt;" style="rhombus;whiteSpace=wrap;html=1;" vertex="1" parent="1">
          <mxGeometry x="1160" y="825" width="80" height="50" as="geometry" />
        </mxCell>
        <mxCell id="x0AtSMN2B3MsgTTcqNLT-72" value="&lt;span style=&quot;font-size: 14px;&quot;&gt;Room ID&lt;/span&gt;" style="ellipse;whiteSpace=wrap;html=1;rotation=90;" vertex="1" parent="1">
          <mxGeometry x="810" y="500" width="120" height="60" as="geometry" />
        </mxCell>
        <mxCell id="x0AtSMN2B3MsgTTcqNLT-73" value="&lt;span style=&quot;font-size: 14px;&quot;&gt;Price&lt;/span&gt;" style="ellipse;whiteSpace=wrap;html=1;rotation=90;" vertex="1" parent="1">
          <mxGeometry x="810" y="660" width="120" height="60" as="geometry" />
        </mxCell>
        <mxCell id="x0AtSMN2B3MsgTTcqNLT-74" value="&lt;span style=&quot;font-size: 14px;&quot;&gt;Amenities&lt;/span&gt;" style="ellipse;whiteSpace=wrap;html=1;rotation=90;" vertex="1" parent="1">
          <mxGeometry x="880" y="660" width="120" height="60" as="geometry" />
        </mxCell>
        <mxCell id="x0AtSMN2B3MsgTTcqNLT-75" value="&lt;span style=&quot;font-size: 14px;&quot;&gt;Capacity&lt;/span&gt;" style="ellipse;whiteSpace=wrap;html=1;rotation=90;" vertex="1" parent="1">
          <mxGeometry x="950" y="660" width="120" height="60" as="geometry" />
        </mxCell>
        <mxCell id="x0AtSMN2B3MsgTTcqNLT-77" value="&lt;span style=&quot;font-size: 14px;&quot;&gt;View Type&lt;/span&gt;" style="ellipse;whiteSpace=wrap;html=1;rotation=90;" vertex="1" parent="1">
          <mxGeometry x="880" y="500" width="120" height="60" as="geometry" />
        </mxCell>
        <mxCell id="x0AtSMN2B3MsgTTcqNLT-78" value="&lt;span style=&quot;font-size: 14px;&quot;&gt;Is Exterdable&lt;/span&gt;" style="ellipse;whiteSpace=wrap;html=1;rotation=90;" vertex="1" parent="1">
          <mxGeometry x="950" y="500" width="120" height="60" as="geometry" />
        </mxCell>
        <mxCell id="x0AtSMN2B3MsgTTcqNLT-79" value="&lt;span style=&quot;font-size: 14px;&quot;&gt;Damages&lt;/span&gt;" style="ellipse;whiteSpace=wrap;html=1;rotation=90;" vertex="1" parent="1">
          <mxGeometry x="1020" y="580" width="120" height="60" as="geometry" />
        </mxCell>
        <mxCell id="x0AtSMN2B3MsgTTcqNLT-80" value="" style="endArrow=none;html=1;rounded=0;entryX=0.5;entryY=1;entryDx=0;entryDy=0;exitX=1;exitY=0.5;exitDx=0;exitDy=0;" edge="1" parent="1" source="x0AtSMN2B3MsgTTcqNLT-43" target="x0AtSMN2B3MsgTTcqNLT-79">
          <mxGeometry width="50" height="50" relative="1" as="geometry">
            <mxPoint x="800" y="590" as="sourcePoint" />
            <mxPoint x="850" y="540" as="targetPoint" />
          </mxGeometry>
        </mxCell>
        <mxCell id="x0AtSMN2B3MsgTTcqNLT-81" value="" style="endArrow=none;html=1;rounded=0;exitX=1;exitY=0.5;exitDx=0;exitDy=0;entryX=0;entryY=0.5;entryDx=0;entryDy=0;" edge="1" parent="1" source="x0AtSMN2B3MsgTTcqNLT-78" target="x0AtSMN2B3MsgTTcqNLT-75">
          <mxGeometry width="50" height="50" relative="1" as="geometry">
            <mxPoint x="1000" y="620" as="sourcePoint" />
            <mxPoint x="1050" y="570" as="targetPoint" />
          </mxGeometry>
        </mxCell>
        <mxCell id="x0AtSMN2B3MsgTTcqNLT-82" value="" style="endArrow=none;html=1;rounded=0;exitX=1;exitY=0.5;exitDx=0;exitDy=0;entryX=0;entryY=0.5;entryDx=0;entryDy=0;" edge="1" parent="1" source="x0AtSMN2B3MsgTTcqNLT-77" target="x0AtSMN2B3MsgTTcqNLT-74">
          <mxGeometry width="50" height="50" relative="1" as="geometry">
            <mxPoint x="1000" y="620" as="sourcePoint" />
            <mxPoint x="1050" y="570" as="targetPoint" />
          </mxGeometry>
        </mxCell>
        <mxCell id="x0AtSMN2B3MsgTTcqNLT-83" value="" style="endArrow=none;html=1;rounded=0;exitX=0;exitY=0.5;exitDx=0;exitDy=0;entryX=1;entryY=0.5;entryDx=0;entryDy=0;" edge="1" parent="1" source="x0AtSMN2B3MsgTTcqNLT-73" target="x0AtSMN2B3MsgTTcqNLT-72">
          <mxGeometry width="50" height="50" relative="1" as="geometry">
            <mxPoint x="1000" y="620" as="sourcePoint" />
            <mxPoint x="1050" y="570" as="targetPoint" />
          </mxGeometry>
        </mxCell>
        <mxCell id="x0AtSMN2B3MsgTTcqNLT-84" value="&lt;span style=&quot;font-size: 14px;&quot;&gt;Customer ID&lt;/span&gt;" style="ellipse;whiteSpace=wrap;html=1;rotation=90;" vertex="1" parent="1">
          <mxGeometry x="1230" y="500" width="120" height="60" as="geometry" />
        </mxCell>
        <mxCell id="x0AtSMN2B3MsgTTcqNLT-85" value="&lt;span style=&quot;font-size: 14px;&quot;&gt;Full Name&lt;/span&gt;" style="ellipse;whiteSpace=wrap;html=1;rotation=90;" vertex="1" parent="1">
          <mxGeometry x="1230" y="660" width="120" height="60" as="geometry" />
        </mxCell>
        <mxCell id="x0AtSMN2B3MsgTTcqNLT-86" value="&lt;span style=&quot;font-size: 14px;&quot;&gt;ID Type&lt;/span&gt;" style="ellipse;whiteSpace=wrap;html=1;rotation=90;" vertex="1" parent="1">
          <mxGeometry x="1300" y="660" width="120" height="60" as="geometry" />
        </mxCell>
        <mxCell id="x0AtSMN2B3MsgTTcqNLT-88" value="&lt;span style=&quot;font-size: 14px;&quot;&gt;Address&lt;/span&gt;" style="ellipse;whiteSpace=wrap;html=1;rotation=90;" vertex="1" parent="1">
          <mxGeometry x="1300" y="500" width="120" height="60" as="geometry" />
        </mxCell>
        <mxCell id="x0AtSMN2B3MsgTTcqNLT-90" value="&lt;span style=&quot;font-size: 14px;&quot;&gt;Registration Date&lt;/span&gt;" style="ellipse;whiteSpace=wrap;html=1;rotation=90;" vertex="1" parent="1">
          <mxGeometry x="1370" y="580" width="120" height="60" as="geometry" />
        </mxCell>
        <mxCell id="x0AtSMN2B3MsgTTcqNLT-91" value="" style="endArrow=none;html=1;rounded=0;entryX=0.5;entryY=1;entryDx=0;entryDy=0;exitX=1;exitY=0.5;exitDx=0;exitDy=0;" edge="1" parent="1" target="x0AtSMN2B3MsgTTcqNLT-90">
          <mxGeometry width="50" height="50" relative="1" as="geometry">
            <mxPoint x="1260" y="610" as="sourcePoint" />
            <mxPoint x="1270" y="540" as="targetPoint" />
          </mxGeometry>
        </mxCell>
        <mxCell id="x0AtSMN2B3MsgTTcqNLT-93" value="" style="endArrow=none;html=1;rounded=0;exitX=1;exitY=0.5;exitDx=0;exitDy=0;entryX=0;entryY=0.5;entryDx=0;entryDy=0;" edge="1" parent="1" source="x0AtSMN2B3MsgTTcqNLT-88" target="x0AtSMN2B3MsgTTcqNLT-86">
          <mxGeometry width="50" height="50" relative="1" as="geometry">
            <mxPoint x="1420" y="620" as="sourcePoint" />
            <mxPoint x="1470" y="570" as="targetPoint" />
          </mxGeometry>
        </mxCell>
        <mxCell id="x0AtSMN2B3MsgTTcqNLT-94" value="" style="endArrow=none;html=1;rounded=0;exitX=0;exitY=0.5;exitDx=0;exitDy=0;entryX=1;entryY=0.5;entryDx=0;entryDy=0;" edge="1" parent="1" source="x0AtSMN2B3MsgTTcqNLT-85" target="x0AtSMN2B3MsgTTcqNLT-84">
          <mxGeometry width="50" height="50" relative="1" as="geometry">
            <mxPoint x="1420" y="620" as="sourcePoint" />
            <mxPoint x="1470" y="570" as="targetPoint" />
          </mxGeometry>
        </mxCell>
        <mxCell id="x0AtSMN2B3MsgTTcqNLT-96" value="&lt;span id=&quot;docs-internal-guid-682e48af-7fff-8a9f-41f8-385f8e114bf9&quot;&gt;&lt;span style=&quot;font-size: 11pt; font-family: Arial, sans-serif; background-color: transparent; font-variant-numeric: normal; font-variant-east-asian: normal; font-variant-alternates: normal; font-variant-position: normal; vertical-align: baseline; white-space-collapse: preserve;&quot;&gt;CheckIn Date&lt;/span&gt;&lt;/span&gt;" style="ellipse;whiteSpace=wrap;html=1;" vertex="1" parent="1">
          <mxGeometry x="640" y="190" width="120" height="60" as="geometry" />
        </mxCell>
        <mxCell id="x0AtSMN2B3MsgTTcqNLT-97" value="&lt;font style=&quot;font-size: 14px;&quot;&gt;Booking ID&lt;/font&gt;" style="ellipse;whiteSpace=wrap;html=1;" vertex="1" parent="1">
          <mxGeometry x="640" y="260" width="120" height="60" as="geometry" />
        </mxCell>
        <mxCell id="x0AtSMN2B3MsgTTcqNLT-98" value="&lt;font style=&quot;font-size: 14px;&quot;&gt;Status&lt;/font&gt;" style="ellipse;whiteSpace=wrap;html=1;" vertex="1" parent="1">
          <mxGeometry x="720" y="120" width="120" height="60" as="geometry" />
        </mxCell>
        <mxCell id="x0AtSMN2B3MsgTTcqNLT-99" value="&lt;font style=&quot;font-size: 14px;&quot;&gt;CheckOut Date&lt;/font&gt;" style="ellipse;whiteSpace=wrap;html=1;" vertex="1" parent="1">
          <mxGeometry x="800" y="190" width="120" height="60" as="geometry" />
        </mxCell>
        <mxCell id="x0AtSMN2B3MsgTTcqNLT-100" value="&lt;span style=&quot;font-size: 14px;&quot;&gt;Booking Date&lt;/span&gt;" style="ellipse;whiteSpace=wrap;html=1;" vertex="1" parent="1">
          <mxGeometry x="800" y="260" width="120" height="60" as="geometry" />
        </mxCell>
        <mxCell id="x0AtSMN2B3MsgTTcqNLT-103" value="" style="endArrow=none;html=1;rounded=0;entryX=0;entryY=0.5;entryDx=0;entryDy=0;" edge="1" parent="1">
          <mxGeometry width="50" height="50" relative="1" as="geometry">
            <mxPoint x="780" y="219.76" as="sourcePoint" />
            <mxPoint x="800" y="219.76" as="targetPoint" />
          </mxGeometry>
        </mxCell>
        <mxCell id="x0AtSMN2B3MsgTTcqNLT-104" value="" style="endArrow=none;html=1;rounded=0;entryX=0;entryY=0.5;entryDx=0;entryDy=0;" edge="1" parent="1">
          <mxGeometry width="50" height="50" relative="1" as="geometry">
            <mxPoint x="780" y="289.76" as="sourcePoint" />
            <mxPoint x="800" y="289.76" as="targetPoint" />
          </mxGeometry>
        </mxCell>
        <mxCell id="x0AtSMN2B3MsgTTcqNLT-105" value="" style="endArrow=none;html=1;rounded=0;entryX=0;entryY=0.5;entryDx=0;entryDy=0;" edge="1" parent="1">
          <mxGeometry width="50" height="50" relative="1" as="geometry">
            <mxPoint x="760" y="289.76" as="sourcePoint" />
            <mxPoint x="780" y="289.76" as="targetPoint" />
          </mxGeometry>
        </mxCell>
        <mxCell id="x0AtSMN2B3MsgTTcqNLT-106" value="" style="endArrow=none;html=1;rounded=0;entryX=0;entryY=0.5;entryDx=0;entryDy=0;" edge="1" parent="1">
          <mxGeometry width="50" height="50" relative="1" as="geometry">
            <mxPoint x="760" y="219.76" as="sourcePoint" />
            <mxPoint x="780" y="219.76" as="targetPoint" />
          </mxGeometry>
        </mxCell>
        <mxCell id="x0AtSMN2B3MsgTTcqNLT-107" value="" style="endArrow=none;html=1;rounded=0;exitX=0.5;exitY=0;exitDx=0;exitDy=0;entryX=0.5;entryY=1;entryDx=0;entryDy=0;" edge="1" parent="1" source="x0AtSMN2B3MsgTTcqNLT-50" target="x0AtSMN2B3MsgTTcqNLT-98">
          <mxGeometry width="50" height="50" relative="1" as="geometry">
            <mxPoint x="960" y="400" as="sourcePoint" />
            <mxPoint x="1010" y="350" as="targetPoint" />
          </mxGeometry>
        </mxCell>
        <mxCell id="x0AtSMN2B3MsgTTcqNLT-108" value="&lt;span style=&quot;font-size: 14px;&quot;&gt;Start Date&lt;/span&gt;" style="ellipse;whiteSpace=wrap;html=1;" vertex="1" parent="1">
          <mxGeometry x="800" y="890" width="120" height="60" as="geometry" />
        </mxCell>
        <mxCell id="x0AtSMN2B3MsgTTcqNLT-109" value="&lt;span style=&quot;font-size: 14px;&quot;&gt;Payment Status&lt;/span&gt;" style="ellipse;whiteSpace=wrap;html=1;" vertex="1" parent="1">
          <mxGeometry x="640" y="960" width="120" height="60" as="geometry" />
        </mxCell>
        <mxCell id="x0AtSMN2B3MsgTTcqNLT-111" value="&lt;span style=&quot;font-size: 14px;&quot;&gt;End Date&lt;/span&gt;" style="ellipse;whiteSpace=wrap;html=1;" vertex="1" parent="1">
          <mxGeometry x="800" y="960" width="120" height="60" as="geometry" />
        </mxCell>
        <mxCell id="x0AtSMN2B3MsgTTcqNLT-115" value="&lt;span style=&quot;font-size: 14px;&quot;&gt;Renting ID&lt;/span&gt;" style="ellipse;whiteSpace=wrap;html=1;" vertex="1" parent="1">
          <mxGeometry x="640" y="890" width="120" height="60" as="geometry" />
        </mxCell>
        <mxCell id="x0AtSMN2B3MsgTTcqNLT-117" value="" style="endArrow=none;html=1;rounded=0;entryX=0;entryY=0.5;entryDx=0;entryDy=0;" edge="1" parent="1">
          <mxGeometry width="50" height="50" relative="1" as="geometry">
            <mxPoint x="780" y="920" as="sourcePoint" />
            <mxPoint x="800" y="920" as="targetPoint" />
          </mxGeometry>
        </mxCell>
        <mxCell id="x0AtSMN2B3MsgTTcqNLT-118" value="" style="endArrow=none;html=1;rounded=0;entryX=0;entryY=0.5;entryDx=0;entryDy=0;" edge="1" parent="1">
          <mxGeometry width="50" height="50" relative="1" as="geometry">
            <mxPoint x="780" y="989.76" as="sourcePoint" />
            <mxPoint x="800" y="989.76" as="targetPoint" />
          </mxGeometry>
        </mxCell>
        <mxCell id="x0AtSMN2B3MsgTTcqNLT-121" value="" style="endArrow=none;html=1;rounded=0;entryX=0;entryY=0.5;entryDx=0;entryDy=0;" edge="1" parent="1">
          <mxGeometry width="50" height="50" relative="1" as="geometry">
            <mxPoint x="760" y="989.76" as="sourcePoint" />
            <mxPoint x="780" y="989.76" as="targetPoint" />
          </mxGeometry>
        </mxCell>
        <mxCell id="x0AtSMN2B3MsgTTcqNLT-124" value="" style="endArrow=none;html=1;rounded=0;exitX=0.5;exitY=1;exitDx=0;exitDy=0;" edge="1" parent="1" source="x0AtSMN2B3MsgTTcqNLT-51">
          <mxGeometry width="50" height="50" relative="1" as="geometry">
            <mxPoint x="880" y="1000" as="sourcePoint" />
            <mxPoint x="780" y="990" as="targetPoint" />
          </mxGeometry>
        </mxCell>
        <mxCell id="x0AtSMN2B3MsgTTcqNLT-125" value="" style="endArrow=none;html=1;rounded=0;exitX=1;exitY=0.5;exitDx=0;exitDy=0;" edge="1" parent="1" source="x0AtSMN2B3MsgTTcqNLT-115">
          <mxGeometry width="50" height="50" relative="1" as="geometry">
            <mxPoint x="880" y="830" as="sourcePoint" />
            <mxPoint x="780" y="920" as="targetPoint" />
          </mxGeometry>
        </mxCell>
        <mxCell id="x0AtSMN2B3MsgTTcqNLT-128" value="&lt;span style=&quot;font-size: 14px;&quot;&gt;Full Name&lt;/span&gt;" style="ellipse;whiteSpace=wrap;html=1;" vertex="1" parent="1">
          <mxGeometry x="40" y="650" width="120" height="60" as="geometry" />
        </mxCell>
        <mxCell id="x0AtSMN2B3MsgTTcqNLT-129" value="&lt;span style=&quot;font-size: 14px;&quot;&gt;Address&lt;/span&gt;" style="ellipse;whiteSpace=wrap;html=1;" vertex="1" parent="1">
          <mxGeometry x="-120" y="720" width="120" height="60" as="geometry" />
        </mxCell>
        <mxCell id="x0AtSMN2B3MsgTTcqNLT-130" value="&lt;span style=&quot;font-size: 14px;&quot;&gt;SSN/SIN&lt;/span&gt;" style="ellipse;whiteSpace=wrap;html=1;" vertex="1" parent="1">
          <mxGeometry x="40" y="720" width="120" height="60" as="geometry" />
        </mxCell>
        <mxCell id="x0AtSMN2B3MsgTTcqNLT-131" value="&lt;span style=&quot;font-size: 14px;&quot;&gt;Employee ID&lt;/span&gt;" style="ellipse;whiteSpace=wrap;html=1;" vertex="1" parent="1">
          <mxGeometry x="-120" y="650" width="120" height="60" as="geometry" />
        </mxCell>
        <mxCell id="x0AtSMN2B3MsgTTcqNLT-132" value="" style="endArrow=none;html=1;rounded=0;entryX=0;entryY=0.5;entryDx=0;entryDy=0;" edge="1" parent="1">
          <mxGeometry width="50" height="50" relative="1" as="geometry">
            <mxPoint x="20" y="680" as="sourcePoint" />
            <mxPoint x="40" y="680" as="targetPoint" />
          </mxGeometry>
        </mxCell>
        <mxCell id="x0AtSMN2B3MsgTTcqNLT-133" value="" style="endArrow=none;html=1;rounded=0;entryX=0;entryY=0.5;entryDx=0;entryDy=0;" edge="1" parent="1">
          <mxGeometry width="50" height="50" relative="1" as="geometry">
            <mxPoint x="20" y="749.76" as="sourcePoint" />
            <mxPoint x="40" y="749.76" as="targetPoint" />
          </mxGeometry>
        </mxCell>
        <mxCell id="x0AtSMN2B3MsgTTcqNLT-134" value="" style="endArrow=none;html=1;rounded=0;entryX=0;entryY=0.5;entryDx=0;entryDy=0;" edge="1" parent="1">
          <mxGeometry width="50" height="50" relative="1" as="geometry">
            <mxPoint y="749.76" as="sourcePoint" />
            <mxPoint x="20" y="749.76" as="targetPoint" />
          </mxGeometry>
        </mxCell>
        <mxCell id="x0AtSMN2B3MsgTTcqNLT-135" value="" style="endArrow=none;html=1;rounded=0;exitX=0.5;exitY=1;exitDx=0;exitDy=0;" edge="1" parent="1">
          <mxGeometry width="50" height="50" relative="1" as="geometry">
            <mxPoint x="20" y="640" as="sourcePoint" />
            <mxPoint x="20" y="750" as="targetPoint" />
          </mxGeometry>
        </mxCell>
        <mxCell id="x0AtSMN2B3MsgTTcqNLT-136" value="" style="endArrow=none;html=1;rounded=0;exitX=1;exitY=0.5;exitDx=0;exitDy=0;" edge="1" parent="1" source="x0AtSMN2B3MsgTTcqNLT-131">
          <mxGeometry width="50" height="50" relative="1" as="geometry">
            <mxPoint x="120" y="590" as="sourcePoint" />
            <mxPoint x="20" y="680" as="targetPoint" />
          </mxGeometry>
        </mxCell>
        <mxCell id="x0AtSMN2B3MsgTTcqNLT-137" value="&lt;span style=&quot;font-size: 14px;&quot;&gt;Role/Position&lt;/span&gt;" style="ellipse;whiteSpace=wrap;html=1;" vertex="1" parent="1">
          <mxGeometry x="-40" y="790" width="120" height="60" as="geometry" />
        </mxCell>
        <mxCell id="x0AtSMN2B3MsgTTcqNLT-138" value="" style="endArrow=none;html=1;rounded=0;entryX=0.496;entryY=-0.04;entryDx=0;entryDy=0;entryPerimeter=0;" edge="1" parent="1" target="x0AtSMN2B3MsgTTcqNLT-137">
          <mxGeometry width="50" height="50" relative="1" as="geometry">
            <mxPoint x="20" y="750" as="sourcePoint" />
            <mxPoint x="80" y="700" as="targetPoint" />
          </mxGeometry>
        </mxCell>
        <mxCell id="x0AtSMN2B3MsgTTcqNLT-157" value="" style="endArrow=classic;html=1;rounded=0;entryX=0.5;entryY=1;entryDx=0;entryDy=0;exitX=0.5;exitY=0;exitDx=0;exitDy=0;" edge="1" parent="1" source="x0AtSMN2B3MsgTTcqNLT-16" target="x0AtSMN2B3MsgTTcqNLT-1">
          <mxGeometry width="50" height="50" relative="1" as="geometry">
            <mxPoint x="500" y="590" as="sourcePoint" />
            <mxPoint x="550" y="540" as="targetPoint" />
          </mxGeometry>
        </mxCell>
        <mxCell id="x0AtSMN2B3MsgTTcqNLT-158" value="" style="endArrow=none;html=1;rounded=0;exitX=0.5;exitY=0;exitDx=0;exitDy=0;entryX=0.5;entryY=1;entryDx=0;entryDy=0;shape=link;" edge="1" parent="1" source="x0AtSMN2B3MsgTTcqNLT-17" target="x0AtSMN2B3MsgTTcqNLT-16">
          <mxGeometry width="50" height="50" relative="1" as="geometry">
            <mxPoint x="500" y="590" as="sourcePoint" />
            <mxPoint x="550" y="540" as="targetPoint" />
          </mxGeometry>
        </mxCell>
        <mxCell id="x0AtSMN2B3MsgTTcqNLT-159" value="" style="endArrow=classic;html=1;rounded=0;exitX=1;exitY=0.5;exitDx=0;exitDy=0;entryX=0;entryY=0.5;entryDx=0;entryDy=0;" edge="1" parent="1" source="x0AtSMN2B3MsgTTcqNLT-39" target="x0AtSMN2B3MsgTTcqNLT-17">
          <mxGeometry width="50" height="50" relative="1" as="geometry">
            <mxPoint x="500" y="590" as="sourcePoint" />
            <mxPoint x="550" y="540" as="targetPoint" />
          </mxGeometry>
        </mxCell>
        <mxCell id="x0AtSMN2B3MsgTTcqNLT-160" value="" style="endArrow=none;html=1;rounded=0;exitX=1;exitY=0.5;exitDx=0;exitDy=0;entryX=0;entryY=0.5;entryDx=0;entryDy=0;shape=link;" edge="1" parent="1" source="x0AtSMN2B3MsgTTcqNLT-38" target="x0AtSMN2B3MsgTTcqNLT-39">
          <mxGeometry width="50" height="50" relative="1" as="geometry">
            <mxPoint x="500" y="590" as="sourcePoint" />
            <mxPoint x="550" y="540" as="targetPoint" />
          </mxGeometry>
        </mxCell>
        <mxCell id="x0AtSMN2B3MsgTTcqNLT-161" value="" style="endArrow=classic;html=1;rounded=0;entryX=1;entryY=0.5;entryDx=0;entryDy=0;exitX=0;exitY=0.5;exitDx=0;exitDy=0;" edge="1" parent="1" source="x0AtSMN2B3MsgTTcqNLT-45" target="x0AtSMN2B3MsgTTcqNLT-17">
          <mxGeometry width="50" height="50" relative="1" as="geometry">
            <mxPoint x="860" y="590" as="sourcePoint" />
            <mxPoint x="910" y="540" as="targetPoint" />
          </mxGeometry>
        </mxCell>
        <mxCell id="x0AtSMN2B3MsgTTcqNLT-162" value="" style="endArrow=none;html=1;rounded=0;exitX=1;exitY=0.5;exitDx=0;exitDy=0;entryX=0;entryY=0.5;entryDx=0;entryDy=0;shape=link;" edge="1" parent="1" source="x0AtSMN2B3MsgTTcqNLT-45" target="x0AtSMN2B3MsgTTcqNLT-43">
          <mxGeometry width="50" height="50" relative="1" as="geometry">
            <mxPoint x="860" y="590" as="sourcePoint" />
            <mxPoint x="910" y="540" as="targetPoint" />
          </mxGeometry>
        </mxCell>
        <mxCell id="x0AtSMN2B3MsgTTcqNLT-164" value="" style="endArrow=none;html=1;rounded=0;exitX=0.5;exitY=0;exitDx=0;exitDy=0;entryX=0.5;entryY=1;entryDx=0;entryDy=0;" edge="1" parent="1" source="x0AtSMN2B3MsgTTcqNLT-43" target="x0AtSMN2B3MsgTTcqNLT-58">
          <mxGeometry width="50" height="50" relative="1" as="geometry">
            <mxPoint x="860" y="590" as="sourcePoint" />
            <mxPoint x="910" y="540" as="targetPoint" />
          </mxGeometry>
        </mxCell>
        <mxCell id="x0AtSMN2B3MsgTTcqNLT-165" value="" style="endArrow=none;html=1;rounded=0;entryX=0.5;entryY=1;entryDx=0;entryDy=0;exitX=0.5;exitY=0;exitDx=0;exitDy=0;shape=link;" edge="1" parent="1" source="x0AtSMN2B3MsgTTcqNLT-58" target="x0AtSMN2B3MsgTTcqNLT-50">
          <mxGeometry width="50" height="50" relative="1" as="geometry">
            <mxPoint x="860" y="590" as="sourcePoint" />
            <mxPoint x="910" y="540" as="targetPoint" />
          </mxGeometry>
        </mxCell>
        <mxCell id="x0AtSMN2B3MsgTTcqNLT-167" value="" style="endArrow=none;html=1;rounded=0;exitX=0.5;exitY=1;exitDx=0;exitDy=0;entryX=0.5;entryY=0;entryDx=0;entryDy=0;" edge="1" parent="1" source="x0AtSMN2B3MsgTTcqNLT-43" target="x0AtSMN2B3MsgTTcqNLT-55">
          <mxGeometry width="50" height="50" relative="1" as="geometry">
            <mxPoint x="860" y="770" as="sourcePoint" />
            <mxPoint x="910" y="720" as="targetPoint" />
          </mxGeometry>
        </mxCell>
        <mxCell id="x0AtSMN2B3MsgTTcqNLT-168" value="" style="endArrow=none;html=1;rounded=0;exitX=0.5;exitY=1;exitDx=0;exitDy=0;entryX=0.5;entryY=0;entryDx=0;entryDy=0;shape=link;" edge="1" parent="1" source="x0AtSMN2B3MsgTTcqNLT-55" target="x0AtSMN2B3MsgTTcqNLT-51">
          <mxGeometry width="50" height="50" relative="1" as="geometry">
            <mxPoint x="790" y="650" as="sourcePoint" />
            <mxPoint x="790" y="715" as="targetPoint" />
          </mxGeometry>
        </mxCell>
        <mxCell id="x0AtSMN2B3MsgTTcqNLT-169" value="" style="endArrow=none;html=1;rounded=0;exitX=1;exitY=0.5;exitDx=0;exitDy=0;entryX=0;entryY=0.5;entryDx=0;entryDy=0;shape=link;" edge="1" parent="1" source="x0AtSMN2B3MsgTTcqNLT-50" target="x0AtSMN2B3MsgTTcqNLT-64">
          <mxGeometry width="50" height="50" relative="1" as="geometry">
            <mxPoint x="870" y="400" as="sourcePoint" />
            <mxPoint x="920" y="350" as="targetPoint" />
          </mxGeometry>
        </mxCell>
        <mxCell id="x0AtSMN2B3MsgTTcqNLT-171" value="" style="endArrow=none;html=1;rounded=0;exitX=1;exitY=0.5;exitDx=0;exitDy=0;entryX=0;entryY=0.5;entryDx=0;entryDy=0;shape=link;" edge="1" parent="1" source="x0AtSMN2B3MsgTTcqNLT-51" target="x0AtSMN2B3MsgTTcqNLT-68">
          <mxGeometry width="50" height="50" relative="1" as="geometry">
            <mxPoint x="860" y="850" as="sourcePoint" />
            <mxPoint x="910" y="800" as="targetPoint" />
          </mxGeometry>
        </mxCell>
        <mxCell id="x0AtSMN2B3MsgTTcqNLT-173" value="" style="endArrow=classic;html=1;rounded=0;exitX=0.5;exitY=1;exitDx=0;exitDy=0;entryX=0.5;entryY=0;entryDx=0;entryDy=0;" edge="1" parent="1" source="x0AtSMN2B3MsgTTcqNLT-64" target="x0AtSMN2B3MsgTTcqNLT-52">
          <mxGeometry width="50" height="50" relative="1" as="geometry">
            <mxPoint x="860" y="510" as="sourcePoint" />
            <mxPoint x="910" y="460" as="targetPoint" />
          </mxGeometry>
        </mxCell>
        <mxCell id="x0AtSMN2B3MsgTTcqNLT-174" value="" style="endArrow=classic;html=1;rounded=0;entryX=0.5;entryY=1;entryDx=0;entryDy=0;exitX=0.5;exitY=0;exitDx=0;exitDy=0;" edge="1" parent="1" source="x0AtSMN2B3MsgTTcqNLT-68" target="x0AtSMN2B3MsgTTcqNLT-52">
          <mxGeometry width="50" height="50" relative="1" as="geometry">
            <mxPoint x="860" y="850" as="sourcePoint" />
            <mxPoint x="910" y="800" as="targetPoint" />
          </mxGeometry>
        </mxCell>
        <mxCell id="x0AtSMN2B3MsgTTcqNLT-175" value="&lt;font style=&quot;font-size: 14px;&quot;&gt;Status&lt;/font&gt;" style="ellipse;whiteSpace=wrap;html=1;" vertex="1" parent="1">
          <mxGeometry x="720" y="1030" width="120" height="60" as="geometry" />
        </mxCell>
        <mxCell id="x0AtSMN2B3MsgTTcqNLT-176" value="" style="endArrow=none;html=1;rounded=0;entryX=0.5;entryY=0;entryDx=0;entryDy=0;" edge="1" parent="1" target="x0AtSMN2B3MsgTTcqNLT-175">
          <mxGeometry width="50" height="50" relative="1" as="geometry">
            <mxPoint x="780" y="990" as="sourcePoint" />
            <mxPoint x="840" y="940" as="targetPoint" />
          </mxGeometry>
        </mxCell>
      </root>
    </mxGraphModel>
  </diagram>
</mxfile>
